<svg xmlns="http://www.w3.org/2000/svg" viewBox="0 0 1600 600" width="1600" height="600"><defs><linearGradient id="sk" x1="0" y1="0" x2="0" y2="1"><stop offset="0" stop-color="#f6a96b"/><stop offset="1" stop-color="#ffe3b0"/></linearGradient><radialGradient id="sn"><stop offset="0" stop-color="#fff" stop-opacity=".95"/><stop offset=".25" stop-color="#fff6c9" stop-opacity=".8"/><stop offset="1" stop-color="#fff6c9" stop-opacity="0"/></radialGradient><linearGradient id="hz" x1="0" y1="0" x2="0" y2="1"><stop offset="0" stop-color="#ffffff"/><stop offset="1" stop-color="#ffffff"/></linearGradient><filter id="bl6" x="-30%" y="-30%" width="160%" height="160%"><feGaussianBlur stdDeviation="6"/></filter><filter id="bl14" x="-40%" y="-80%" width="180%" height="260%"><feGaussianBlur stdDeviation="14"/></filter></defs><rect width="1600" height="600" fill="url(#sk)"/><circle cx="480" cy="180" r="168" fill="url(#sn)"/><ellipse cx="320" cy="108" rx="112" ry="21" fill="#fff" opacity=".75" filter="url(#bl6)"/><ellipse cx="720" cy="72" rx="80" ry="21" fill="#fff" opacity=".75" filter="url(#bl6)"/><ellipse cx="992" cy="144" rx="96" ry="21" fill="#fff" opacity=".75" filter="url(#bl6)"/><ellipse cx="1440" cy="90" rx="80" ry="21" fill="#fff" opacity=".75" filter="url(#bl6)"/><path d="M0,288 C320,246 640,300 960,252 S1440,294 1600,264 L1600,600 L0,600Z" fill="#7ea35a"/><path d="M0,324 C320,282 640,336 960,288 S1440,330 1600,300 L1600,600 L0,600Z" fill="#5f8f48"/><path d="M0,351 C320,309 640,363 960,315 S1440,357 1600,327 L1600,600 L0,600Z" fill="#437a38"/><rect y="360" width="1600" height="240" fill="#3f7d33"/><polygon points="550,360 570,360 -1312,600 -1488,600" fill="#4a8d3c"/><polygon points="589,360 608,360 -960,600 -1136,600" fill="#4a8d3c"/><polygon points="627,360 646,360 -608,600 -784,600" fill="#4a8d3c"/><polygon points="666,360 685,360 -256,600 -432,600" fill="#4a8d3c"/><polygon points="704,360 723,360 96,600 -80,600" fill="#4a8d3c"/><polygon points="742,360 762,360 448,600 272,600" fill="#4a8d3c"/><polygon points="781,360 800,360 800,600 624,600" fill="#4a8d3c"/><polygon points="819,360 838,360 1152,600 976,600" fill="#4a8d3c"/><polygon points="858,360 877,360 1504,600 1328,600" fill="#4a8d3c"/><polygon points="896,360 915,360 1856,600 1680,600" fill="#4a8d3c"/><polygon points="934,360 954,360 2208,600 2032,600" fill="#4a8d3c"/><polygon points="973,360 992,360 2560,600 2384,600" fill="#4a8d3c"/><polygon points="1011,360 1030,360 2912,600 2736,600" fill="#4a8d3c"/><polygon points="1050,360 1069,360 3264,600 3088,600" fill="#4a8d3c"/><rect y="354" width="1600" height="60" fill="#fff" opacity=".18" filter="url(#bl14)"/><rect x="320" y="284" width="110" height="70" fill="#b3432f"/><polygon points="312,284 375,242 438,284" fill="#7d2a1c"/><rect x="358" y="312" width="34" height="42" fill="#f3e6d3"/></svg>