<svg xmlns="http://www.w3.org/2000/svg" viewBox="0 0 800 800" width="800" height="800"><defs><linearGradient id="bgw" x1="0" y1="0" x2="0" y2="1"><stop offset="0" stop-color="#fffaea"/><stop offset="1" stop-color="#f7ebc0"/></linearGradient><linearGradient id="tb" x1="0" y1="0" x2="0" y2="1"><stop offset="0" stop-color="#d6bf98"/><stop offset="1" stop-color="#a98f66"/></linearGradient><radialGradient id="vg" cx=".5" cy=".5" r=".75"><stop offset=".6" stop-color="#000" stop-opacity="0"/><stop offset="1" stop-color="#000" stop-opacity=".22"/></radialGradient><linearGradient id="bn" x1="0" y1="0" x2="0" y2="1"><stop offset="0" stop-color="#fff08a"/><stop offset="0.5" stop-color="#f7c91c"/><stop offset="1" stop-color="#c8920a"/></linearGradient><filter id="bl6" x="-30%" y="-30%" width="160%" height="160%"><feGaussianBlur stdDeviation="6"/></filter><filter id="bl14" x="-40%" y="-80%" width="180%" height="260%"><feGaussianBlur stdDeviation="14"/></filter></defs><rect width="800" height="800" fill="url(#bgw)"/><rect y="528" width="800" height="272" fill="url(#tb)"/><rect y="525" width="800" height="6" fill="#000" opacity=".08"/><ellipse cx="400" cy="614" rx="240" ry="40" fill="#000" opacity=".28" filter="url(#bl14)"/><g transform="translate(400,357) rotate(0) scale(2.3)"><g transform="translate(0,-34) rotate(-6)"><path d="M-150,-10 C-120,95 30,135 138,-38 L156,-66 L130,-76 C62,60 -68,62 -122,-52Z" fill="url(#bn)"/><path d="M-150,-10 C-146,-30 -136,-48 -122,-52 L-138,-28Z" fill="#4a3216"/><path d="M138,-38 L156,-66 L130,-76 L120,-58Z" fill="#6f6030"/><path d="M-108,-26 C-60,50 40,68 108,-22" stroke="#fffbd0" stroke-width="6" fill="none" opacity=".55" stroke-linecap="round"/></g><g transform="translate(6,6)"><path d="M-150,-10 C-120,95 30,135 138,-38 L156,-66 L130,-76 C62,60 -68,62 -122,-52Z" fill="url(#bn)"/><path d="M-150,-10 C-146,-30 -136,-48 -122,-52 L-138,-28Z" fill="#4a3216"/><path d="M138,-38 L156,-66 L130,-76 L120,-58Z" fill="#6f6030"/><path d="M-108,-26 C-60,50 40,68 108,-22" stroke="#fffbd0" stroke-width="6" fill="none" opacity=".55" stroke-linecap="round"/></g><g transform="translate(14,46) rotate(5)"><path d="M-150,-10 C-120,95 30,135 138,-38 L156,-66 L130,-76 C62,60 -68,62 -122,-52Z" fill="url(#bn)"/><path d="M-150,-10 C-146,-30 -136,-48 -122,-52 L-138,-28Z" fill="#4a3216"/><path d="M138,-38 L156,-66 L130,-76 L120,-58Z" fill="#6f6030"/><path d="M-108,-26 C-60,50 40,68 108,-22" stroke="#fffbd0" stroke-width="6" fill="none" opacity=".55" stroke-linecap="round"/></g></g><rect width="800" height="800" fill="url(#vg)"/></svg>