<svg xmlns="http://www.w3.org/2000/svg" viewBox="0 0 800 800" width="800" height="800"><defs><linearGradient id="bgw" x1="0" y1="0" x2="0" y2="1"><stop offset="0" stop-color="#f1f7ea"/><stop offset="1" stop-color="#dcebcb"/></linearGradient><linearGradient id="tb" x1="0" y1="0" x2="0" y2="1"><stop offset="0" stop-color="#d6bf98"/><stop offset="1" stop-color="#a98f66"/></linearGradient><radialGradient id="vg" cx=".5" cy=".5" r=".75"><stop offset=".6" stop-color="#000" stop-opacity="0"/><stop offset="1" stop-color="#000" stop-opacity=".22"/></radialGradient><linearGradient id="sk" x1="0" y1="0" x2="1" y2="0"><stop offset="0" stop-color="#ffffff"/><stop offset="1" stop-color="#cfe6b0"/></linearGradient><linearGradient id="g1" x1="0" y1="0" x2="1" y2="1"><stop offset="0" stop-color="#a6e36a"/><stop offset="1" stop-color="#3a9d3f"/></linearGradient><linearGradient id="g2" x1="0" y1="0" x2="1" y2="1"><stop offset="0" stop-color="#5fbf55"/><stop offset="1" stop-color="#1b6b2a"/></linearGradient><linearGradient id="g3" x1="0" y1="0" x2="1" y2="1"><stop offset="0" stop-color="#c9e87a"/><stop offset="1" stop-color="#6aa83a"/></linearGradient><filter id="bl6" x="-30%" y="-30%" width="160%" height="160%"><feGaussianBlur stdDeviation="6"/></filter><filter id="bl14" x="-40%" y="-80%" width="180%" height="260%"><feGaussianBlur stdDeviation="14"/></filter></defs><rect width="800" height="800" fill="url(#bgw)"/><rect y="528" width="800" height="272" fill="url(#tb)"/><rect y="525" width="800" height="6" fill="#000" opacity=".08"/><ellipse cx="400" cy="594" rx="229" ry="39" fill="#000" opacity=".28" filter="url(#bl14)"/><g transform="translate(400,349) rotate(0) scale(1.7)"><g transform="translate(-78.0,-52) rotate(-24)"><path d="M0,0 C-62,-39 -62,-116 0,-155 C62,-116 62,-39 0,0Z" fill="url(#g2)"/><path d="M0,0 L0,-140" stroke="#fff" stroke-opacity=".4" stroke-width="2.5"/></g><g transform="translate(-27.0,-52) rotate(-8)"><path d="M0,0 C-62,-39 -62,-116 0,-155 C62,-116 62,-39 0,0Z" fill="url(#g1)"/><path d="M0,0 L0,-140" stroke="#fff" stroke-opacity=".4" stroke-width="2.5"/></g><g transform="translate(27.0,-52) rotate(8)"><path d="M0,0 C-62,-39 -62,-116 0,-155 C62,-116 62,-39 0,0Z" fill="url(#g1)"/><path d="M0,0 L0,-140" stroke="#fff" stroke-opacity=".4" stroke-width="2.5"/></g><g transform="translate(78.0,-52) rotate(24)"><path d="M0,0 C-62,-39 -62,-116 0,-155 C62,-116 62,-39 0,0Z" fill="url(#g2)"/><path d="M0,0 L0,-140" stroke="#fff" stroke-opacity=".4" stroke-width="2.5"/></g><path d="M-24,142 C-29,40 -62,-20 -72,-56 L-48,-56 C-44,-20 -11,40 -6,142Z" fill="url(#sk)" stroke="#a9c985" stroke-width="2"/><path d="M-8,142 C-10,40 -21,-20 -24,-56 L0,-56 C-3,-20 8,40 10,142Z" fill="url(#sk)" stroke="#a9c985" stroke-width="2"/><path d="M8,142 C10,40 21,-20 24,-56 L48,-56 C39,-20 28,40 26,142Z" fill="url(#sk)" stroke="#a9c985" stroke-width="2"/><path d="M24,142 C29,40 62,-20 72,-56 L96,-56 C80,-20 47,40 42,142Z" fill="url(#sk)" stroke="#a9c985" stroke-width="2"/></g><rect width="800" height="800" fill="url(#vg)"/></svg>