<svg xmlns="http://www.w3.org/2000/svg" viewBox="0 0 800 800" width="800" height="800"><defs><linearGradient id="bgw" x1="0" y1="0" x2="0" y2="1"><stop offset="0" stop-color="#f1f7ea"/><stop offset="1" stop-color="#dcebcb"/></linearGradient><linearGradient id="tb" x1="0" y1="0" x2="0" y2="1"><stop offset="0" stop-color="#d6bf98"/><stop offset="1" stop-color="#a98f66"/></linearGradient><radialGradient id="vg" cx=".5" cy=".5" r=".75"><stop offset=".6" stop-color="#000" stop-opacity="0"/><stop offset="1" stop-color="#000" stop-opacity=".22"/></radialGradient><linearGradient id="g1" x1="0" y1="0" x2="1" y2="1"><stop offset="0" stop-color="#a6e36a"/><stop offset="1" stop-color="#3a9d3f"/></linearGradient><linearGradient id="g2" x1="0" y1="0" x2="1" y2="1"><stop offset="0" stop-color="#5fbf55"/><stop offset="1" stop-color="#1b6b2a"/></linearGradient><linearGradient id="g3" x1="0" y1="0" x2="1" y2="1"><stop offset="0" stop-color="#c9e87a"/><stop offset="1" stop-color="#6aa83a"/></linearGradient><filter id="bl6" x="-30%" y="-30%" width="160%" height="160%"><feGaussianBlur stdDeviation="6"/></filter><filter id="bl14" x="-40%" y="-80%" width="180%" height="260%"><feGaussianBlur stdDeviation="14"/></filter></defs><rect width="800" height="800" fill="url(#bgw)"/><rect y="528" width="800" height="272" fill="url(#tb)"/><rect y="525" width="800" height="6" fill="#000" opacity=".08"/><ellipse cx="400" cy="594" rx="236" ry="40" fill="#000" opacity=".28" filter="url(#bl14)"/><g transform="translate(400,342) rotate(0) scale(1.7)"><g transform="translate(0,112) rotate(-54)"><path d="M0,0 L0,-66" stroke="#a5d36a" stroke-width="7" stroke-linecap="round"/></g><g transform="translate(0,112) rotate(-54)"><path transform="translate(0,-50)" d="M0,0 C-40,-41 -40,-124 0,-165 C40,-124 40,-41 0,0Z" fill="url(#g1)"/><path d="M0,0 L0,-148" stroke="#fff" stroke-opacity=".4" stroke-width="2.5"/></g><g transform="translate(0,112) rotate(-38)"><path d="M0,0 L0,-75" stroke="#a5d36a" stroke-width="7" stroke-linecap="round"/></g><g transform="translate(0,112) rotate(-38)"><path transform="translate(0,-56)" d="M0,0 C-48,-47 -48,-140 0,-187 C48,-140 48,-47 0,0Z" fill="url(#g2)"/><path d="M0,0 L0,-168" stroke="#fff" stroke-opacity=".4" stroke-width="2.5"/></g><g transform="translate(0,112) rotate(-22)"><path d="M0,0 L0,-84" stroke="#a5d36a" stroke-width="7" stroke-linecap="round"/></g><g transform="translate(0,112) rotate(-22)"><path transform="translate(0,-63)" d="M0,0 C-40,-52 -40,-157 0,-209 C40,-157 40,-52 0,0Z" fill="url(#g3)"/><path d="M0,0 L0,-188" stroke="#fff" stroke-opacity=".4" stroke-width="2.5"/></g><g transform="translate(0,112) rotate(-7)"><path d="M0,0 L0,-66" stroke="#a5d36a" stroke-width="7" stroke-linecap="round"/></g><g transform="translate(0,112) rotate(-7)"><path transform="translate(0,-50)" d="M0,0 C-48,-41 -48,-124 0,-165 C48,-124 48,-41 0,0Z" fill="url(#g1)"/><path d="M0,0 L0,-148" stroke="#fff" stroke-opacity=".4" stroke-width="2.5"/></g><g transform="translate(0,112) rotate(8)"><path d="M0,0 L0,-75" stroke="#a5d36a" stroke-width="7" stroke-linecap="round"/></g><g transform="translate(0,112) rotate(8)"><path transform="translate(0,-56)" d="M0,0 C-40,-47 -40,-140 0,-187 C40,-140 40,-47 0,0Z" fill="url(#g2)"/><path d="M0,0 L0,-168" stroke="#fff" stroke-opacity=".4" stroke-width="2.5"/></g><g transform="translate(0,112) rotate(23)"><path d="M0,0 L0,-84" stroke="#a5d36a" stroke-width="7" stroke-linecap="round"/></g><g transform="translate(0,112) rotate(23)"><path transform="translate(0,-63)" d="M0,0 C-48,-52 -48,-157 0,-209 C48,-157 48,-52 0,0Z" fill="url(#g3)"/><path d="M0,0 L0,-188" stroke="#fff" stroke-opacity=".4" stroke-width="2.5"/></g><g transform="translate(0,112) rotate(38)"><path d="M0,0 L0,-66" stroke="#a5d36a" stroke-width="7" stroke-linecap="round"/></g><g transform="translate(0,112) rotate(38)"><path transform="translate(0,-50)" d="M0,0 C-40,-41 -40,-124 0,-165 C40,-124 40,-41 0,0Z" fill="url(#g1)"/><path d="M0,0 L0,-148" stroke="#fff" stroke-opacity=".4" stroke-width="2.5"/></g><g transform="translate(0,112) rotate(54)"><path d="M0,0 L0,-75" stroke="#a5d36a" stroke-width="7" stroke-linecap="round"/></g><g transform="translate(0,112) rotate(54)"><path transform="translate(0,-56)" d="M0,0 C-48,-47 -48,-140 0,-187 C48,-140 48,-47 0,0Z" fill="url(#g2)"/><path d="M0,0 L0,-168" stroke="#fff" stroke-opacity=".4" stroke-width="2.5"/></g><circle cx="-70" cy="-90" r="5" fill="#ffd93b"/><circle cx="-30" cy="-120" r="5" fill="#ffd93b"/><circle cx="20" cy="-110" r="5" fill="#ffd93b"/><circle cx="70" cy="-85" r="5" fill="#ffd93b"/><circle cx="0" cy="-70" r="5" fill="#ffd93b"/><circle cx="50" cy="-125" r="5" fill="#ffd93b"/><rect x="-30" y="108" width="60" height="38" rx="6" fill="#d7ebb4"/><rect x="-34" y="82" width="68" height="16" rx="7" fill="#b9792b"/></g><rect width="800" height="800" fill="url(#vg)"/></svg>